<?xml version="1.0" encoding="UTF-8"?>
<svg width="427px" height="280px" viewBox="0 0 427 280" version="1.1" xmlns="http://www.w3.org/2000/svg" xmlns:xlink="http://www.w3.org/1999/xlink">
    <!-- Generator: Sketch 55.2 (78181) - https://sketchapp.com -->
    <title>编组 28备份</title>
    <desc>Created with Sketch.</desc>
    <g id="页面1" stroke="none" stroke-width="1" fill="none" fill-rule="evenodd">
        <g id="编组-28备份">
            <g id="编组-11">
                <g id="编组-4">
                    <g id="编组-23">
                        <g id="编组-22">
                            <path d="M10,11 L267,11 L267,96 L10,96 L10,11 Z" id="矩形_586_拷贝" stroke="#F5222D" stroke-width="2" fill-opacity="0.758003715" fill="#02274A" stroke-dasharray="2"></path>
                            <path d="M44.9380558,37.7195741 C40.1535008,37.7195741 36.2744655,41.8628842 36.2744655,46.9745212 L36.2744655,58.3463429 L53.7249127,58.3463429 L53.7249127,46.9745212 C53.7249127,41.8628431 49.8467621,37.7195741 45.0621686,37.7195741 L44.9380558,37.7195741 Z M34.8803405,43.262615 C35.0341835,42.4464854 34.5385783,41.6518049 33.774671,41.4874449 L29.6893708,40.6115704 C28.9254635,40.4481555 28.1807481,40.9776001 28.0277897,41.7937297 C27.9954184,41.9662973 27.9912933,42.1435541 28.0155977,42.3176272 C28.1021344,42.9264577 28.5356639,43.4400827 29.1334977,43.5688999 L33.2187979,44.4447743 C33.9835513,44.6082303 34.7273821,44.0796897 34.8803405,43.262615 Z M33.944206,33.1504483 L36.5463061,36.626991 C37.0331037,37.2769115 37.9211623,37.3824717 38.5303805,36.8623545 C39.1387141,36.3421962 39.2374812,35.3934281 38.7506452,34.7426036 L36.1477374,31.2669238 C35.6617859,30.6170444 34.7737273,30.5114842 34.1645091,31.0306974 C33.7554407,31.3799624 33.5771366,31.9215697 33.6505582,32.4370027 C33.687549,32.6984197 33.7889036,32.9446381 33.9442444,33.1504483 L33.944206,33.1504483 Z M45.1766662,34.4652872 C45.956304,34.4848872 46.6022522,33.8255981 46.6205595,32.9936078 L46.6109443,28.5430678 C46.6293285,27.7110364 46.0122259,27.0200259 45.2334728,27.0004259 C44.4537966,26.980826 43.8070022,27.640115 43.788618,28.4721054 L43.7982332,32.9225632 C43.7965024,33.0122627 43.8017331,33.100976 43.8140021,33.1868952 C43.9153846,33.8965195 44.481796,34.4484403 45.1766662,34.4652872 L45.1766662,34.4652872 Z M51.7101851,37.1938275 C52.2949807,37.7438583 53.1873469,37.6832094 53.7021824,37.058436 L56.4545871,33.7163809 C56.9694226,33.0907035 56.9125776,32.1382373 56.327859,31.5882066 C55.7422172,31.0381758 54.8506972,31.0989068 54.3358616,31.7235981 L51.5826493,35.0657354 C51.2959244,35.4140142 51.1866575,35.8641141 51.2470024,36.2898886 C51.2950014,36.6279361 51.4514597,36.9501228 51.7101851,37.1938686 L51.7101851,37.1938275 Z M61.983819,42.6472923 C61.8666676,41.8236432 61.1465286,41.2577518 60.3764292,41.3837748 L56.2570527,42.0533363 C55.4861071,42.1784554 54.9564642,42.9469616 55.0735387,43.7706107 C55.1906901,44.5941775 55.910906,45.160069 56.6818132,45.03495 L60.8003435,44.3645255 C61.5712506,44.2394065 62.1008935,43.470818 61.9837806,42.6472512 L61.983819,42.6472923 Z M56.8067721,61.7966702 C56.8067721,62.9835137 55.906483,63.9444444 54.795506,63.9444444 L34.7614968,63.9444444 C33.6505197,63.9444444 32.7502691,62.9835137 32.7502691,61.7966702 C32.7502691,60.6098266 33.6505197,59.6488959 34.7614968,59.6488959 L54.7955445,59.6488959 C55.9065215,59.6488959 56.8067721,60.6098266 56.8067721,61.7966702 L56.8067721,61.7966702 Z" id="形状" fill="#F5222D" fill-rule="nonzero"></path>
                            <path d="M31.3554688,72.7119141 L32.9414062,72.7119141 C32.5221333,72.4339179 32.070966,72.1695976 31.5878906,71.9189453 C32.5175828,70.7613874 33.2102842,69.4580151 33.6660156,68.0087891 L35.484375,68.4873047 C35.3430983,68.8655618 35.2018236,69.2255842 35.0605469,69.5673828 L37.2753906,69.5673828 L37.2753906,67.8173828 L39.2441406,67.8173828 L39.2441406,69.5673828 L43.9882812,69.5673828 L43.9882812,71.2080078 L39.2441406,71.2080078 L39.2441406,72.7119141 L44.7539062,72.7119141 L44.7539062,74.3525391 L31.3554688,74.3525391 L31.3554688,72.7119141 Z M33.3378906,72.7119141 L37.2753906,72.7119141 L37.2753906,71.2080078 L34.2744141,71.2080078 C33.9736313,71.7685575 33.66146,72.2698546 33.3378906,72.7119141 Z M32.8730469,81.3388672 L32.8730469,75.3369141 L43.2363281,75.3369141 L43.2363281,81.3388672 L41.3769531,81.3388672 L41.3769531,80.6142578 L34.7324219,80.6142578 L34.7324219,81.3388672 L32.8730469,81.3388672 Z M41.3769531,77.0322266 L34.7324219,77.0322266 L34.7324219,78.9189453 L41.3769531,78.9189453 L41.3769531,77.0322266 Z M45.4511719,74.4345703 L51.6035156,74.4345703 C51.5579425,74.2887362 51.51237,74.1383471 51.4667969,73.9833984 C51.2480458,74.0563155 50.9837255,74.0927734 50.6738281,74.0927734 L49.5390625,74.0927734 C49.5117186,73.956054 49.4843751,73.8238939 49.4570312,73.6962891 L47.6523438,73.6962891 L47.6523438,73.9423828 L46.53125,73.9423828 L46.53125,72.2470703 C46.3580721,72.4475921 46.1848967,72.6435537 46.0117188,72.8349609 C45.783853,72.488605 45.5286472,72.1468116 45.2460938,71.8095703 C45.8385446,71.2353487 46.307941,70.556319 46.6542969,69.7724609 L47.078125,69.7724609 L47.078125,69.4580078 L45.3828125,69.4580078 L45.3828125,68.4736328 L47.078125,68.4736328 L47.078125,67.8447266 L48.5820312,67.8447266 L48.5820312,68.4736328 L49.7578125,68.4736328 L49.7578125,67.8310547 L51.2617188,67.8310547 L51.2617188,68.4736328 L53.0390625,68.4736328 L53.0390625,69.4580078 L51.2617188,69.4580078 L51.2617188,69.8955078 L49.7578125,69.8955078 L49.7578125,69.4580078 L48.5820312,69.4580078 L48.5820312,69.8408203 L48.0488281,69.8408203 C48.003255,69.9501959 47.9531253,70.0504553 47.8984375,70.1416016 L52.3417969,70.1416016 C52.3326822,70.9801474 52.309896,71.8323524 52.2734375,72.6982422 C52.2643229,73.0810566 52.1731779,73.3863921 52,73.6142578 L52.9707031,73.5322266 C53.0345055,73.8147801 53.098307,74.1155583 53.1621094,74.4345703 L58.6582031,74.4345703 L58.6582031,75.5556641 L45.4511719,75.5556641 L45.4511719,74.4345703 Z M46.8867188,78.6455078 L56.9765625,78.6455078 L56.9765625,81.4619141 L55.2265625,81.4619141 L55.2265625,81.1064453 L48.6367188,81.1064453 L48.6367188,81.4619141 L46.8867188,81.4619141 L46.8867188,78.6455078 Z M52.3964844,70.7294922 C53.1074254,69.8727171 53.617837,68.9065809 53.9277344,67.8310547 L55.4589844,67.8994141 C55.3587235,68.2093114 55.2493496,68.5100897 55.1308594,68.8017578 L58.6171875,68.8017578 L58.6171875,70.0595703 L57.8105469,70.0595703 C57.5644519,70.8707723 57.1862005,71.5771454 56.6757812,72.1787109 C57.2500029,72.4794937 57.9244753,72.7210277 58.6992188,72.9033203 C58.3893214,73.377281 58.1158866,73.8011049 57.8789062,74.1748047 C56.9947872,73.8922512 56.2473989,73.555015 55.6367188,73.1630859 C55.0624971,73.5914735 54.3834675,73.9469387 53.5996094,74.2294922 C53.3352851,73.8102193 53.0390641,73.3863954 52.7109375,72.9580078 C53.4127639,72.7666006 54.0234349,72.5159521 54.5429688,72.2060547 C54.2968738,71.9143866 54.0644542,71.5725931 53.8457031,71.1806641 C53.6634105,71.4449883 53.4720062,71.7047513 53.2714844,71.9599609 C52.8977846,71.4039686 52.6061208,70.9938164 52.3964844,70.7294922 Z M46.8867188,76.1025391 L56.9765625,76.1025391 L56.9765625,76.8134766 L46.8867188,76.8134766 L46.8867188,76.1025391 Z M46.8867188,77.3603516 L56.9765625,77.3603516 L56.9765625,78.0712891 L46.8867188,78.0712891 L46.8867188,77.3603516 Z M55.2265625,79.4111328 L48.6367188,79.4111328 L48.6367188,80.0400391 L55.2265625,80.0400391 L55.2265625,79.4111328 Z M47.0234375,71.6044922 L50.1269531,71.6044922 L50.1269531,73.0126953 L50.3867188,73.0126953 C50.6875015,73.0126953 50.8515624,72.8714207 50.8789062,72.5888672 C50.8971355,72.2060528 50.9108072,71.7275419 50.9199219,71.1533203 L47.3242188,71.1533203 C47.2239578,71.308269 47.1236984,71.4586581 47.0234375,71.6044922 Z M55.5820312,71.4130859 C55.9648457,71.0211569 56.2565094,70.5699895 56.4570312,70.0595703 L54.6113281,70.0595703 C54.884767,70.5973334 55.2083315,71.0485008 55.5820312,71.4130859 Z M47.6523438,72.8896484 L49.0058594,72.8896484 L49.0058594,72.4111328 L47.6523438,72.4111328 L47.6523438,72.8896484 Z" id="告警" fill="#F5222D" fill-rule="nonzero"></path>
                            <polygon id="矩形" fill="#F5222D" points="1 0 15 0 15 3 1 3"></polygon>
                            <polygon id="矩形备份" fill="#F5222D" transform="translate(2.000000, 7.500000) rotate(-270.000000) translate(-2.000000, -7.500000) " points="-5 6 9 6 9 9 -5 9"></polygon>
                            <polygon id="矩形" fill="#F5222D" transform="translate(268.000000, 1.500000) scale(-1, 1) translate(-268.000000, -1.500000) " points="261 0 275 0 275 3 261 3"></polygon>
                            <polygon id="矩形备份" fill="#F5222D" transform="translate(274.000000, 7.500000) scale(-1, 1) rotate(-270.000000) translate(-274.000000, -7.500000) " points="267 6 281 6 281 9 267 9"></polygon>
                            <polygon id="矩形" fill="#F5222D" transform="translate(268.000000, 102.500000) scale(-1, -1) translate(-268.000000, -102.500000) " points="261 101 275 101 275 104 261 104"></polygon>
                            <polygon id="矩形备份" fill="#F5222D" transform="translate(274.000000, 96.500000) scale(-1, -1) rotate(-270.000000) translate(-274.000000, -96.500000) " points="267 95 281 95 281 98 267 98"></polygon>
                            <polygon id="矩形" fill="#F5222D" transform="translate(8.000000, 102.500000) scale(1, -1) translate(-8.000000, -102.500000) " points="1 101 15 101 15 104 1 104"></polygon>
                            <polygon id="矩形备份" fill="#F5222D" transform="translate(2.000000, 96.500000) scale(1, -1) rotate(-270.000000) translate(-2.000000, -96.500000) " points="-5 95 9 95 9 98 -5 98"></polygon>
                        </g>
                    </g>
                    <g id="报警" transform="translate(28.000000, 27.000000)"></g>
                </g>
                <g id="编组-7"></g>
                <g id="编组-7备份" transform="translate(268.500000, 7.500000) scale(-1, 1) translate(-268.500000, -7.500000) translate(261.000000, 0.000000)"></g>
                <g id="编组-7备份-2" transform="translate(268.500000, 96.500000) scale(-1, -1) translate(-268.500000, -96.500000) translate(261.000000, 89.000000)"></g>
                <g id="编组-7备份-3" transform="translate(7.500000, 96.500000) scale(1, -1) translate(-7.500000, -96.500000) translate(0.000000, 89.000000)"></g>
            </g>
            <g id="编组-24" transform="translate(406.000000, 259.000000)" fill="#FFFFFF">
                <g id="编组-5">
                    <path d="M13,20.4011086 L13,18.7909352 C16.7231969,17.709255 19.4444444,14.2726954 19.4444444,10.2005543 C19.4444444,6.12841322 16.7231969,2.69185356 13,1.61017337 L13,-5.32907052e-15 C17.5920108,1.12156115 21,5.26306845 21,10.2005543 C21,15.1380401 17.5920108,19.2795474 13,20.4011086 Z M8,-4.88498131e-15 L8,1.61017337 C4.27680306,2.69185356 1.55555556,6.12841322 1.55555556,10.2005543 C1.55555556,14.2726954 4.27680306,17.709255 8,18.7909352 L8,20.4011086 C3.40798921,19.2795474 0,15.1380401 0,10.2005543 C0,5.26306845 3.40798921,1.12156115 8,2.88657986e-15 Z" id="形状结合" fill-rule="nonzero"></path>
                    <circle id="椭圆形备份-14" cx="10.5" cy="10.2005543" r="3.5"></circle>
                </g>
            </g>
            <polygon id="路径-172" fill="#F5222D" fill-rule="nonzero" points="416.367964 268.141399 239.348433 96.141399 238.651567 96.858601 415.671099 268.858601"></polygon>
        </g>
    </g>
</svg>