<?xml version="1.0" encoding="UTF-8"?>
<svg width="427px" height="280px" viewBox="0 0 427 280" version="1.1" xmlns="http://www.w3.org/2000/svg" xmlns:xlink="http://www.w3.org/1999/xlink">
    <!-- Generator: Sketch 55.2 (78181) - https://sketchapp.com -->
    <title>编组 28备份</title>
    <desc>Created with Sketch.</desc>
    <g id="页面1" stroke="none" stroke-width="1" fill="none" fill-rule="evenodd">
        <g id="编组-28备份" transform="translate(213.500000, 140.000000) scale(-1, 1) translate(-213.500000, -140.000000) ">
            <g id="编组-11">
                <g id="编组-4">
                    <g id="编组-23">
                        <g id="编组-22">
                            <path d="M10,11 L267,11 L267,96 L10,96 L10,11 Z" id="矩形_586_拷贝" stroke="#F5222D" stroke-width="2" fill-opacity="0.758003715" fill="#02274A" stroke-dasharray="2"></path>
                            <path d="M232.938056,37.7195741 C228.153501,37.7195741 224.274466,41.8628842 224.274466,46.9745212 L224.274466,58.3463429 L241.724913,58.3463429 L241.724913,46.9745212 C241.724913,41.8628431 237.846762,37.7195741 233.062169,37.7195741 L232.938056,37.7195741 Z M222.88034,43.262615 C223.034183,42.4464854 222.538578,41.6518049 221.774671,41.4874449 L217.689371,40.6115704 C216.925464,40.4481555 216.180748,40.9776001 216.02779,41.7937297 C215.995418,41.9662973 215.991293,42.1435541 216.015598,42.3176272 C216.102134,42.9264577 216.535664,43.4400827 217.133498,43.5688999 L221.218798,44.4447743 C221.983551,44.6082303 222.727382,44.0796897 222.88034,43.262615 Z M221.944206,33.1504483 L224.546306,36.626991 C225.033104,37.2769115 225.921162,37.3824717 226.53038,36.8623545 C227.138714,36.3421962 227.237481,35.3934281 226.750645,34.7426036 L224.147737,31.2669238 C223.661786,30.6170444 222.773727,30.5114842 222.164509,31.0306974 C221.755441,31.3799624 221.577137,31.9215697 221.650558,32.4370027 C221.687549,32.6984197 221.788904,32.9446381 221.944244,33.1504483 L221.944206,33.1504483 Z M233.176666,34.4652872 C233.956304,34.4848872 234.602252,33.8255981 234.620559,32.9936078 L234.610944,28.5430678 C234.629329,27.7110364 234.012226,27.0200259 233.233473,27.0004259 C232.453797,26.980826 231.807002,27.640115 231.788618,28.4721054 L231.798233,32.9225632 C231.796502,33.0122627 231.801733,33.100976 231.814002,33.1868952 C231.915385,33.8965195 232.481796,34.4484403 233.176666,34.4652872 L233.176666,34.4652872 Z M239.710185,37.1938275 C240.294981,37.7438583 241.187347,37.6832094 241.702182,37.058436 L244.454587,33.7163809 C244.969423,33.0907035 244.912578,32.1382373 244.327859,31.5882066 C243.742217,31.0381758 242.850697,31.0989068 242.335862,31.7235981 L239.582649,35.0657354 C239.295924,35.4140142 239.186657,35.8641141 239.247002,36.2898886 C239.295001,36.6279361 239.45146,36.9501228 239.710185,37.1938686 L239.710185,37.1938275 Z M249.983819,42.6472923 C249.866668,41.8236432 249.146529,41.2577518 248.376429,41.3837748 L244.257053,42.0533363 C243.486107,42.1784554 242.956464,42.9469616 243.073539,43.7706107 C243.19069,44.5941775 243.910906,45.160069 244.681813,45.03495 L248.800343,44.3645255 C249.571251,44.2394065 250.100894,43.470818 249.983781,42.6472512 L249.983819,42.6472923 Z M244.806772,61.7966702 C244.806772,62.9835137 243.906483,63.9444444 242.795506,63.9444444 L222.761497,63.9444444 C221.65052,63.9444444 220.750269,62.9835137 220.750269,61.7966702 C220.750269,60.6098266 221.65052,59.6488959 222.761497,59.6488959 L242.795544,59.6488959 C243.906522,59.6488959 244.806772,60.6098266 244.806772,61.7966702 L244.806772,61.7966702 Z" id="形状" fill="#F5222D" fill-rule="nonzero" transform="translate(233.000000, 45.472222) scale(-1, 1) translate(-233.000000, -45.472222) "></path>
                            <path d="M219.355469,72.7119141 L220.941406,72.7119141 C220.522133,72.4339179 220.070966,72.1695976 219.587891,71.9189453 C220.517583,70.7613874 221.210284,69.4580151 221.666016,68.0087891 L223.484375,68.4873047 C223.343098,68.8655618 223.201824,69.2255842 223.060547,69.5673828 L225.275391,69.5673828 L225.275391,67.8173828 L227.244141,67.8173828 L227.244141,69.5673828 L231.988281,69.5673828 L231.988281,71.2080078 L227.244141,71.2080078 L227.244141,72.7119141 L232.753906,72.7119141 L232.753906,74.3525391 L219.355469,74.3525391 L219.355469,72.7119141 Z M221.337891,72.7119141 L225.275391,72.7119141 L225.275391,71.2080078 L222.274414,71.2080078 C221.973631,71.7685575 221.66146,72.2698546 221.337891,72.7119141 Z M220.873047,81.3388672 L220.873047,75.3369141 L231.236328,75.3369141 L231.236328,81.3388672 L229.376953,81.3388672 L229.376953,80.6142578 L222.732422,80.6142578 L222.732422,81.3388672 L220.873047,81.3388672 Z M229.376953,77.0322266 L222.732422,77.0322266 L222.732422,78.9189453 L229.376953,78.9189453 L229.376953,77.0322266 Z M233.451172,74.4345703 L239.603516,74.4345703 C239.557942,74.2887362 239.51237,74.1383471 239.466797,73.9833984 C239.248046,74.0563155 238.983726,74.0927734 238.673828,74.0927734 L237.539062,74.0927734 C237.511719,73.956054 237.484375,73.8238939 237.457031,73.6962891 L235.652344,73.6962891 L235.652344,73.9423828 L234.53125,73.9423828 L234.53125,72.2470703 C234.358072,72.4475921 234.184897,72.6435537 234.011719,72.8349609 C233.783853,72.488605 233.528647,72.1468116 233.246094,71.8095703 C233.838545,71.2353487 234.307941,70.556319 234.654297,69.7724609 L235.078125,69.7724609 L235.078125,69.4580078 L233.382812,69.4580078 L233.382812,68.4736328 L235.078125,68.4736328 L235.078125,67.8447266 L236.582031,67.8447266 L236.582031,68.4736328 L237.757812,68.4736328 L237.757812,67.8310547 L239.261719,67.8310547 L239.261719,68.4736328 L241.039062,68.4736328 L241.039062,69.4580078 L239.261719,69.4580078 L239.261719,69.8955078 L237.757812,69.8955078 L237.757812,69.4580078 L236.582031,69.4580078 L236.582031,69.8408203 L236.048828,69.8408203 C236.003255,69.9501959 235.953125,70.0504553 235.898438,70.1416016 L240.341797,70.1416016 C240.332682,70.9801474 240.309896,71.8323524 240.273438,72.6982422 C240.264323,73.0810566 240.173178,73.3863921 240,73.6142578 L240.970703,73.5322266 C241.034506,73.8147801 241.098307,74.1155583 241.162109,74.4345703 L246.658203,74.4345703 L246.658203,75.5556641 L233.451172,75.5556641 L233.451172,74.4345703 Z M234.886719,78.6455078 L244.976562,78.6455078 L244.976562,81.4619141 L243.226562,81.4619141 L243.226562,81.1064453 L236.636719,81.1064453 L236.636719,81.4619141 L234.886719,81.4619141 L234.886719,78.6455078 Z M240.396484,70.7294922 C241.107425,69.8727171 241.617837,68.9065809 241.927734,67.8310547 L243.458984,67.8994141 C243.358723,68.2093114 243.24935,68.5100897 243.130859,68.8017578 L246.617188,68.8017578 L246.617188,70.0595703 L245.810547,70.0595703 C245.564452,70.8707723 245.1862,71.5771454 244.675781,72.1787109 C245.250003,72.4794937 245.924475,72.7210277 246.699219,72.9033203 C246.389321,73.377281 246.115887,73.8011049 245.878906,74.1748047 C244.994787,73.8922512 244.247399,73.555015 243.636719,73.1630859 C243.062497,73.5914735 242.383467,73.9469387 241.599609,74.2294922 C241.335285,73.8102193 241.039064,73.3863954 240.710938,72.9580078 C241.412764,72.7666006 242.023435,72.5159521 242.542969,72.2060547 C242.296874,71.9143866 242.064454,71.5725931 241.845703,71.1806641 C241.663411,71.4449883 241.472006,71.7047513 241.271484,71.9599609 C240.897785,71.4039686 240.606121,70.9938164 240.396484,70.7294922 Z M234.886719,76.1025391 L244.976562,76.1025391 L244.976562,76.8134766 L234.886719,76.8134766 L234.886719,76.1025391 Z M234.886719,77.3603516 L244.976562,77.3603516 L244.976562,78.0712891 L234.886719,78.0712891 L234.886719,77.3603516 Z M243.226562,79.4111328 L236.636719,79.4111328 L236.636719,80.0400391 L243.226562,80.0400391 L243.226562,79.4111328 Z M235.023438,71.6044922 L238.126953,71.6044922 L238.126953,73.0126953 L238.386719,73.0126953 C238.687502,73.0126953 238.851562,72.8714207 238.878906,72.5888672 C238.897136,72.2060528 238.910807,71.7275419 238.919922,71.1533203 L235.324219,71.1533203 C235.223958,71.308269 235.123698,71.4586581 235.023438,71.6044922 Z M243.582031,71.4130859 C243.964846,71.0211569 244.256509,70.5699895 244.457031,70.0595703 L242.611328,70.0595703 C242.884767,70.5973334 243.208331,71.0485008 243.582031,71.4130859 Z M235.652344,72.8896484 L237.005859,72.8896484 L237.005859,72.4111328 L235.652344,72.4111328 L235.652344,72.8896484 Z" id="告警" fill="#F5222D" fill-rule="nonzero" transform="translate(233.027344, 74.639648) scale(-1, 1) translate(-233.027344, -74.639648) "></path>
                            <polygon id="矩形" fill="#F5222D" points="1 0 15 0 15 3 1 3"></polygon>
                            <polygon id="矩形备份" fill="#F5222D" transform="translate(2.000000, 7.500000) rotate(-270.000000) translate(-2.000000, -7.500000) " points="-5 6 9 6 9 9 -5 9"></polygon>
                            <polygon id="矩形" fill="#F5222D" transform="translate(268.000000, 1.500000) scale(-1, 1) translate(-268.000000, -1.500000) " points="261 0 275 0 275 3 261 3"></polygon>
                            <polygon id="矩形备份" fill="#F5222D" transform="translate(274.000000, 7.500000) scale(-1, 1) rotate(-270.000000) translate(-274.000000, -7.500000) " points="267 6 281 6 281 9 267 9"></polygon>
                            <polygon id="矩形" fill="#F5222D" transform="translate(268.000000, 102.500000) scale(-1, -1) translate(-268.000000, -102.500000) " points="261 101 275 101 275 104 261 104"></polygon>
                            <polygon id="矩形备份" fill="#F5222D" transform="translate(274.000000, 96.500000) scale(-1, -1) rotate(-270.000000) translate(-274.000000, -96.500000) " points="267 95 281 95 281 98 267 98"></polygon>
                            <polygon id="矩形" fill="#F5222D" transform="translate(8.000000, 102.500000) scale(1, -1) translate(-8.000000, -102.500000) " points="1 101 15 101 15 104 1 104"></polygon>
                            <polygon id="矩形备份" fill="#F5222D" transform="translate(2.000000, 96.500000) scale(1, -1) rotate(-270.000000) translate(-2.000000, -96.500000) " points="-5 95 9 95 9 98 -5 98"></polygon>
                        </g>
                    </g>
                    <g id="报警" transform="translate(28.000000, 27.000000)"></g>
                </g>
                <g id="编组-7"></g>
                <g id="编组-7备份" transform="translate(268.500000, 7.500000) scale(-1, 1) translate(-268.500000, -7.500000) translate(261.000000, 0.000000)"></g>
                <g id="编组-7备份-2" transform="translate(268.500000, 96.500000) scale(-1, -1) translate(-268.500000, -96.500000) translate(261.000000, 89.000000)"></g>
                <g id="编组-7备份-3" transform="translate(7.500000, 96.500000) scale(1, -1) translate(-7.500000, -96.500000) translate(0.000000, 89.000000)"></g>
            </g>
            <g id="编组-24" transform="translate(406.000000, 259.000000)" fill="#FFFFFF">
                <g id="编组-5">
                    <path d="M13,20.4011086 L13,18.7909352 C16.7231969,17.709255 19.4444444,14.2726954 19.4444444,10.2005543 C19.4444444,6.12841322 16.7231969,2.69185356 13,1.61017337 L13,-5.32907052e-15 C17.5920108,1.12156115 21,5.26306845 21,10.2005543 C21,15.1380401 17.5920108,19.2795474 13,20.4011086 Z M8,-4.88498131e-15 L8,1.61017337 C4.27680306,2.69185356 1.55555556,6.12841322 1.55555556,10.2005543 C1.55555556,14.2726954 4.27680306,17.709255 8,18.7909352 L8,20.4011086 C3.40798921,19.2795474 0,15.1380401 0,10.2005543 C0,5.26306845 3.40798921,1.12156115 8,2.88657986e-15 Z" id="形状结合" fill-rule="nonzero"></path>
                    <circle id="椭圆形备份-14" cx="10.5" cy="10.2005543" r="3.5"></circle>
                </g>
            </g>
            <polygon id="路径-172" fill="#F5222D" fill-rule="nonzero" points="416.367964 268.141399 239.348433 96.141399 238.651567 96.858601 415.671099 268.858601"></polygon>
        </g>
    </g>
</svg>